<svg width="167" height="49" viewBox="0 0 167 49" fill="none" xmlns="http://www.w3.org/2000/svg">
<path d="M16.408 47.9998H17.024L30.464 14.6238C32.704 9.02378 31.136 5.21578 26.936 5.21578C24.416 5.21578 19.768 6.55978 17.136 6.55978C13.776 6.55978 12.04 4.31978 11.928 0.175781L8.73597 5.83178C10.528 7.34378 13.328 7.67978 14.784 7.67978C18.144 7.67978 24.416 5.77578 27.048 5.77578C30.632 5.77578 31.864 9.41578 29.792 14.5678L19.432 40.5518L11.312 19.8318C10.136 16.9198 9.79997 12.8878 10.472 9.80778L10.528 9.47178H0.167969L0.727969 10.3678C2.35197 13.1678 4.19997 16.9198 5.31997 19.8318L16.408 47.9998Z" fill="white"/>
<path d="M59.9506 46.3198C56.2546 46.3198 51.6626 43.5198 51.6626 37.8078C51.6626 30.4158 59.2786 26.1038 59.2786 18.1518C59.2786 14.9038 57.9906 11.2078 55.4706 9.69578C62.8626 10.8718 67.6786 18.3198 67.6786 28.9598C67.6786 37.1918 64.7666 43.4078 59.9506 46.3198ZM39.0066 28.7918C39.0066 17.1998 44.6626 9.47178 53.2306 9.47178C53.2866 9.47178 53.3426 9.47178 53.3986 9.47178C56.8706 9.86378 58.7186 14.3438 58.7186 18.1518C58.7186 25.9358 51.1026 30.1358 51.1026 37.7518C51.1026 43.3518 55.1906 46.3198 58.9426 46.7678C57.3186 47.5518 55.4146 47.9998 53.3986 47.9998C44.7746 47.9998 39.0066 40.4398 39.0066 28.7918ZM33.5186 28.7358C33.5186 40.6078 41.4706 48.5598 53.3426 48.5598C65.2146 48.5598 73.1666 40.6078 73.1666 28.7358C73.1666 16.8078 65.2146 8.91178 53.2866 8.91178C41.4706 8.91178 33.5186 16.8078 33.5186 28.7358Z" fill="white"/>
<path d="M87.6233 9.47178H77.7113L77.9353 9.97578C79.1673 12.9998 79.8953 17.0318 79.8953 20.2238V37.1918C79.8953 40.3838 79.1673 44.4718 77.9353 47.4398L77.7113 47.9998H101.847L102.911 43.5758L100.895 44.7518C98.1513 46.3758 94.2313 47.4398 91.0393 47.4398H85.4393V20.2238C85.4393 17.0318 86.1673 12.9998 87.3993 9.97578L87.6233 9.47178Z" fill="white"/>
<path d="M126.323 47.9998H136.235L135.899 47.3278C134.779 45.0878 133.995 41.9518 133.995 39.4318V38.8158C133.995 28.4558 114.283 29.6318 114.283 23.2478C114.283 21.7918 115.459 20.0558 117.139 20.0558C120.275 20.0558 121.003 25.8238 125.707 25.8238C128.955 25.8238 131.251 23.0798 131.251 18.8798V18.0398C131.251 15.5758 132.035 12.3838 133.155 10.1438L133.491 9.47178H128.507L128.843 10.1438C129.963 12.3838 130.691 15.5758 130.691 18.0398V18.8798C130.691 21.0078 129.963 25.1518 125.875 25.1518C121.059 25.1518 120.611 19.5518 117.139 19.5518C115.123 19.5518 113.779 21.4558 113.779 23.4718C113.779 30.0798 128.507 28.9038 128.507 38.8158V39.4318C128.507 41.9518 127.723 45.0878 126.659 47.3278L126.323 47.9998ZM115.235 47.4398C114.003 44.4718 113.275 40.3838 113.275 37.1918V20.2238C113.275 17.0318 114.003 12.9998 115.235 9.97578L115.459 9.47178H105.547L105.771 9.97578C107.003 12.9998 107.731 17.0318 107.731 20.2238V37.1918C107.731 40.3838 107.003 44.4718 105.771 47.4398L105.547 47.9998H115.459L115.235 47.4398Z" fill="white"/>
<path d="M157.254 47.4398C156.022 44.4718 155.294 40.3838 155.294 37.1918V28.3998L164.254 14.1198C167.838 8.51978 166.886 5.21578 162.182 5.21578C158.99 5.21578 154.398 6.55978 151.766 6.55978C148.406 6.55978 146.67 4.31978 146.558 0.175781L143.366 5.83178C145.158 7.34378 147.958 7.67978 149.358 7.67978C152.718 7.67978 158.99 5.77578 162.294 5.77578C166.27 5.77578 166.942 8.79978 163.582 14.0638L154.958 27.8398L150.142 18.7678C148.742 16.1918 147.958 12.4398 148.182 9.47178H137.374L138.27 10.5358C140.118 12.8878 142.358 16.1918 143.758 18.7678L149.75 30.0798V37.1918C149.75 40.3838 148.966 44.4718 147.79 47.4398L147.566 47.9998H157.478L157.254 47.4398Z" fill="white"/>
</svg>
